# xmcd
#
# Track frame offsets:
# 150
# 24197
# 39702
# 54782
# 65726
# 79471
# 98351
# 117202
# 131523
# 155137
#
# Disc length: 2371 seconds
#
# Revision: 0
# Processed by: cddbd v1.4PL0 Copyright (c) Steve Scherf et al.
# Submitted via: Axialis_AX_CDPlayer 2.6
#
DISCID=7b09410a
DTITLE=Grateful Dead - American Beauty
DYEAR=1900
DGENRE=
TTITLE0=Box Of Rain
TTITLE1=Friend Of The Devil
TTITLE2=Sugar Magnolia
TTITLE3=Operator
TTITLE4=Candyman
TTITLE5=Ripple
TTITLE6=Brokedown Places
TTITLE7=Till The Morning Comes
TTITLE8=Attics Of The Life
TTITLE9=Truckin'
EXTD=
EXTT0=
EXTT1=
EXTT2=
EXTT3=
EXTT4=
EXTT5=
EXTT6=
EXTT7=
EXTT8=
EXTT9=
PLAYORDER=
